<svg width="52" height="51" viewBox="0 0 52 51" fill="none" xmlns="http://www.w3.org/2000/svg">
<path d="M37.7 0.291992C33.0417 0.299601 28.6779 2.70272 26 6.73417C23.3221 2.70272 18.9583 0.299601 14.3 0.291992C6.68197 0.291992 0 7.7887 0 16.3337C0 24.6615 4.4459 33.2387 12.8578 41.1387C16.7553 44.792 21.0306 47.9676 25.6022 50.6062C25.8519 50.7422 26.1481 50.7422 26.3978 50.6062C30.9677 47.9676 35.2418 44.7915 39.138 41.1387C47.5541 33.2387 52 24.6615 52 16.3337C52 7.7887 45.318 0.291992 37.7 0.291992V0.291992ZM26 48.7496C22.8169 46.8916 1.73333 33.9115 1.73333 16.3337C1.73333 8.76489 7.60492 2.12533 14.3 2.12533C18.8356 2.13383 23.0166 4.7218 25.2451 8.90051C25.4118 9.16996 25.6957 9.33199 26 9.33199C26.3043 9.33199 26.5882 9.16996 26.7549 8.90051C28.9834 4.7218 33.1644 2.13383 37.7 2.12533C44.3951 2.12533 50.2667 8.76489 50.2667 16.3337C50.2667 33.9115 29.1831 46.8916 26 48.7496Z" fill="#1F1F1F"/>
</svg>
