<svg width="71" height="69" viewBox="0 0 71 69" fill="none" xmlns="http://www.w3.org/2000/svg">
<path d="M62.125 46V23C62.1239 21.9916 61.85 21.0013 61.3308 20.1283C60.8116 19.2553 60.0652 18.5304 59.1667 18.0262L38.4583 6.52621C37.5589 6.02155 36.5386 5.75586 35.5 5.75586C34.4614 5.75586 33.4411 6.02155 32.5417 6.52621L11.8333 18.0262C10.9348 18.5304 10.1884 19.2553 9.6692 20.1283C9.14996 21.0013 8.87606 21.9916 8.875 23V46C8.87606 47.0083 9.14996 47.9986 9.6692 48.8716C10.1884 49.7446 10.9348 50.4695 11.8333 50.9737L32.5417 62.4737C33.4411 62.9784 34.4614 63.2441 35.5 63.2441C36.5386 63.2441 37.5589 62.9784 38.4583 62.4737L59.1667 50.9737C60.0652 50.4695 60.8116 49.7446 61.3308 48.8716C61.85 47.9986 62.1239 47.0083 62.125 46Z" stroke="#1F1F1F" stroke-width="2" stroke-linecap="round" stroke-linejoin="round"/>
<path d="M9.67383 20.0098L35.5001 34.5285L61.3263 20.0098" stroke="#1F1F1F" stroke-width="2" stroke-linecap="round" stroke-linejoin="round"/>
<path d="M35.5 63.48V34.5" stroke="#1F1F1F" stroke-width="2" stroke-linecap="round" stroke-linejoin="round"/>
</svg>
