<svg width="52" height="52" viewBox="0 0 52 52" fill="none" xmlns="http://www.w3.org/2000/svg">
<mask id="path-1-inside-1" fill="white">
<path d="M46.0238 17.2086L51.7773 11.4552C51.9476 11.2848 52.027 11.0449 51.9918 10.8077C51.9565 10.5703 51.8106 10.3633 51.598 10.2491L32.7077 0.0930312C32.4088 -0.067539 32.0391 -0.0144219 31.7988 0.224047L25.9996 5.97645L20.2008 0.224453C20.0564 0.0802344 19.8629 0 19.6592 0C19.5312 0 19.4052 0.0323984 19.2926 0.0934375L13.2252 3.35441C13.045 3.45191 12.9139 3.61237 12.8555 3.80737C12.7972 4.00237 12.8187 4.20855 12.9159 4.3873C13.0511 4.63308 13.3101 4.78654 13.5917 4.78654C13.7187 4.78654 13.8456 4.75404 13.9572 4.69412L19.5199 1.7032L24.7283 6.86959L7.19876 16.268L2.03437 11.1035L11.2563 6.14544C11.4376 6.04896 11.5686 5.88849 11.627 5.69349C11.6853 5.49849 11.6638 5.29232 11.5655 5.11357C11.4314 4.86779 11.1724 4.71443 10.8908 4.71443C10.7638 4.71443 10.6379 4.74683 10.5253 4.80675L0.402297 10.2495C0.190352 10.3621 0.0429119 10.5714 0.00809974 10.8081C-0.0267124 11.0436 0.0532532 11.2853 0.223116 11.455L5.97603 17.2089L0.222707 22.9622C0.0524341 23.1326 -0.0270196 23.3725 0.00820212 23.6097C0.0435262 23.8471 0.18943 24.0541 0.401989 24.1683L6.29067 27.3342V41.0801C6.29057 41.1064 6.2919 41.1326 6.29457 41.1585C6.29569 41.1696 6.29784 41.1803 6.29938 41.1913C6.30132 41.2046 6.30286 41.2179 6.30552 41.231C6.3088 41.2476 6.3133 41.2636 6.3176 41.2798C6.31965 41.2872 6.32119 41.2947 6.32344 41.3021C6.32846 41.3185 6.3345 41.3344 6.34054 41.3505C6.3432 41.3576 6.34545 41.3648 6.34842 41.3718C6.35436 41.3862 6.36122 41.3999 6.36798 41.4137C6.37218 41.4224 6.37597 41.431 6.38047 41.4394C6.38661 41.4508 6.39347 41.4617 6.40003 41.4726C6.40637 41.4831 6.41242 41.4937 6.41917 41.5039C6.4248 41.5123 6.43115 41.5204 6.43719 41.5286C6.4459 41.5405 6.4545 41.5526 6.46392 41.5641C6.46914 41.5705 6.47497 41.5764 6.4804 41.5826C6.49125 41.595 6.50211 41.6074 6.51378 41.6191C6.51982 41.6251 6.52648 41.6306 6.53272 41.6366C6.54439 41.6474 6.55586 41.6584 6.56825 41.6686C6.58023 41.6784 6.59293 41.6873 6.60542 41.6964C6.61279 41.7018 6.61965 41.7075 6.62723 41.7126C6.64924 41.7274 6.67207 41.7411 6.69562 41.7537L25.6309 51.9065C25.6581 51.9213 25.6866 51.9341 25.7158 51.9457C25.7221 51.9481 25.7286 51.9503 25.735 51.9526C25.7563 51.9604 25.7779 51.9673 25.8001 51.9731C25.8081 51.9752 25.816 51.9774 25.824 51.9792C25.8455 51.9842 25.8673 51.9881 25.8894 51.9913C25.897 51.9923 25.9044 51.9937 25.9119 51.9946C25.9408 51.9979 25.9701 52 25.9999 52C26.0297 52 26.059 51.9979 26.0879 51.9946C26.0954 51.9937 26.1029 51.9923 26.1105 51.9913C26.1326 51.9881 26.1544 51.9842 26.1758 51.9792C26.1838 51.9774 26.1918 51.9752 26.1997 51.9731C26.2218 51.9672 26.2435 51.9604 26.2647 51.9526C26.2711 51.9503 26.2776 51.9481 26.2839 51.9457C26.313 51.9341 26.3415 51.9213 26.3687 51.9065L45.304 41.7537C45.3275 41.7411 45.3504 41.7274 45.3724 41.7126C45.3799 41.7075 45.3869 41.7017 45.3942 41.6964C45.4068 41.6872 45.4195 41.6783 45.4313 41.6686C45.4437 41.6584 45.4552 41.6474 45.4669 41.6366C45.4731 41.6306 45.4798 41.6252 45.4858 41.6191C45.4975 41.6074 45.5083 41.595 45.5192 41.5826C45.5246 41.5764 45.5305 41.5705 45.5357 41.5641C45.5451 41.5527 45.5537 41.5406 45.5624 41.5286C45.5684 41.5204 45.5748 41.5123 45.5804 41.5039C45.5872 41.4937 45.5932 41.4832 45.5996 41.4726C45.6062 41.4617 45.6131 41.4508 45.6191 41.4394C45.6236 41.431 45.6274 41.4224 45.6316 41.4137C45.6384 41.3999 45.6452 41.3862 45.6512 41.3718C45.6541 41.3648 45.6564 41.3576 45.6591 41.3505C45.6651 41.3345 45.6711 41.3186 45.6762 41.3021C45.6784 41.2948 45.6799 41.2873 45.682 41.2798C45.6863 41.2636 45.6908 41.2476 45.6941 41.231C45.6967 41.2179 45.6983 41.2046 45.7002 41.1913C45.7018 41.1803 45.704 41.1696 45.705 41.1585C45.7077 41.1325 45.709 41.1063 45.7089 41.0801V27.3342L51.5973 24.1684C51.8092 24.0547 51.9567 23.8455 51.9915 23.6098C52.0263 23.3732 51.9464 23.1315 51.7775 22.9619L46.0238 17.2086ZM32.4796 1.7033L49.9652 11.104L44.8009 16.2683L27.2716 6.86928L32.4796 1.7033ZM7.42115 26.2093L2.03468 23.3134L7.19897 18.1491L24.7284 27.5481L19.5203 32.7141L7.4277 26.2128L7.42115 26.2093ZM25.2321 49.9607L7.8264 40.628V28.1599L19.2923 34.3244C19.4075 34.3862 19.5332 34.4164 19.6579 34.4164C19.8569 34.4164 20.0535 34.3398 20.2012 34.1934L25.2321 29.2031V49.9607ZM26 26.4982L8.6751 17.2089L26.0004 7.91944L43.3253 17.2087L26 26.4982ZM44.5818 26.2078L44.5694 26.2144L40.7437 28.2713C40.5625 28.3678 40.4314 28.5293 40.373 28.7243C40.3147 28.9194 40.3362 29.1255 40.4334 29.3043C40.5686 29.5501 40.8276 29.7025 41.1092 29.7025C41.2362 29.7025 41.3631 29.6709 41.4747 29.6111L44.1735 28.16V40.6283L26.7679 49.9608V29.2027L31.7992 34.1934C31.9447 34.3376 32.1371 34.4168 32.3419 34.4168C32.4688 34.4168 32.5948 34.3843 32.7074 34.3244L38.7748 31.0623C38.9551 30.9658 39.0861 30.8043 39.1445 30.6093C39.2028 30.4143 39.1813 30.2092 39.0841 30.0304C38.9489 29.7836 38.6899 29.6313 38.4073 29.6313C38.2813 29.6313 38.1544 29.6627 38.0428 29.7237L32.4801 32.7135L27.2717 27.5482L44.8013 18.1487L49.9657 23.3132L44.5818 26.2078Z"/>
</mask>
<path d="M46.0238 17.2086L51.7773 11.4552C51.9476 11.2848 52.027 11.0449 51.9918 10.8077C51.9565 10.5703 51.8106 10.3633 51.598 10.2491L32.7077 0.0930312C32.4088 -0.067539 32.0391 -0.0144219 31.7988 0.224047L25.9996 5.97645L20.2008 0.224453C20.0564 0.0802344 19.8629 0 19.6592 0C19.5312 0 19.4052 0.0323984 19.2926 0.0934375L13.2252 3.35441C13.045 3.45191 12.9139 3.61237 12.8555 3.80737C12.7972 4.00237 12.8187 4.20855 12.9159 4.3873C13.0511 4.63308 13.3101 4.78654 13.5917 4.78654C13.7187 4.78654 13.8456 4.75404 13.9572 4.69412L19.5199 1.7032L24.7283 6.86959L7.19876 16.268L2.03437 11.1035L11.2563 6.14544C11.4376 6.04896 11.5686 5.88849 11.627 5.69349C11.6853 5.49849 11.6638 5.29232 11.5655 5.11357C11.4314 4.86779 11.1724 4.71443 10.8908 4.71443C10.7638 4.71443 10.6379 4.74683 10.5253 4.80675L0.402297 10.2495C0.190352 10.3621 0.0429119 10.5714 0.00809974 10.8081C-0.0267124 11.0436 0.0532532 11.2853 0.223116 11.455L5.97603 17.2089L0.222707 22.9622C0.0524341 23.1326 -0.0270196 23.3725 0.00820212 23.6097C0.0435262 23.8471 0.18943 24.0541 0.401989 24.1683L6.29067 27.3342V41.0801C6.29057 41.1064 6.2919 41.1326 6.29457 41.1585C6.29569 41.1696 6.29784 41.1803 6.29938 41.1913C6.30132 41.2046 6.30286 41.2179 6.30552 41.231C6.3088 41.2476 6.3133 41.2636 6.3176 41.2798C6.31965 41.2872 6.32119 41.2947 6.32344 41.3021C6.32846 41.3185 6.3345 41.3344 6.34054 41.3505C6.3432 41.3576 6.34545 41.3648 6.34842 41.3718C6.35436 41.3862 6.36122 41.3999 6.36798 41.4137C6.37218 41.4224 6.37597 41.431 6.38047 41.4394C6.38661 41.4508 6.39347 41.4617 6.40003 41.4726C6.40637 41.4831 6.41242 41.4937 6.41917 41.5039C6.4248 41.5123 6.43115 41.5204 6.43719 41.5286C6.4459 41.5405 6.4545 41.5526 6.46392 41.5641C6.46914 41.5705 6.47497 41.5764 6.4804 41.5826C6.49125 41.595 6.50211 41.6074 6.51378 41.6191C6.51982 41.6251 6.52648 41.6306 6.53272 41.6366C6.54439 41.6474 6.55586 41.6584 6.56825 41.6686C6.58023 41.6784 6.59293 41.6873 6.60542 41.6964C6.61279 41.7018 6.61965 41.7075 6.62723 41.7126C6.64924 41.7274 6.67207 41.7411 6.69562 41.7537L25.6309 51.9065C25.6581 51.9213 25.6866 51.9341 25.7158 51.9457C25.7221 51.9481 25.7286 51.9503 25.735 51.9526C25.7563 51.9604 25.7779 51.9673 25.8001 51.9731C25.8081 51.9752 25.816 51.9774 25.824 51.9792C25.8455 51.9842 25.8673 51.9881 25.8894 51.9913C25.897 51.9923 25.9044 51.9937 25.9119 51.9946C25.9408 51.9979 25.9701 52 25.9999 52C26.0297 52 26.059 51.9979 26.0879 51.9946C26.0954 51.9937 26.1029 51.9923 26.1105 51.9913C26.1326 51.9881 26.1544 51.9842 26.1758 51.9792C26.1838 51.9774 26.1918 51.9752 26.1997 51.9731C26.2218 51.9672 26.2435 51.9604 26.2647 51.9526C26.2711 51.9503 26.2776 51.9481 26.2839 51.9457C26.313 51.9341 26.3415 51.9213 26.3687 51.9065L45.304 41.7537C45.3275 41.7411 45.3504 41.7274 45.3724 41.7126C45.3799 41.7075 45.3869 41.7017 45.3942 41.6964C45.4068 41.6872 45.4195 41.6783 45.4313 41.6686C45.4437 41.6584 45.4552 41.6474 45.4669 41.6366C45.4731 41.6306 45.4798 41.6252 45.4858 41.6191C45.4975 41.6074 45.5083 41.595 45.5192 41.5826C45.5246 41.5764 45.5305 41.5705 45.5357 41.5641C45.5451 41.5527 45.5537 41.5406 45.5624 41.5286C45.5684 41.5204 45.5748 41.5123 45.5804 41.5039C45.5872 41.4937 45.5932 41.4832 45.5996 41.4726C45.6062 41.4617 45.6131 41.4508 45.6191 41.4394C45.6236 41.431 45.6274 41.4224 45.6316 41.4137C45.6384 41.3999 45.6452 41.3862 45.6512 41.3718C45.6541 41.3648 45.6564 41.3576 45.6591 41.3505C45.6651 41.3345 45.6711 41.3186 45.6762 41.3021C45.6784 41.2948 45.6799 41.2873 45.682 41.2798C45.6863 41.2636 45.6908 41.2476 45.6941 41.231C45.6967 41.2179 45.6983 41.2046 45.7002 41.1913C45.7018 41.1803 45.704 41.1696 45.705 41.1585C45.7077 41.1325 45.709 41.1063 45.7089 41.0801V27.3342L51.5973 24.1684C51.8092 24.0547 51.9567 23.8455 51.9915 23.6098C52.0263 23.3732 51.9464 23.1315 51.7775 22.9619L46.0238 17.2086ZM32.4796 1.7033L49.9652 11.104L44.8009 16.2683L27.2716 6.86928L32.4796 1.7033ZM7.42115 26.2093L2.03468 23.3134L7.19897 18.1491L24.7284 27.5481L19.5203 32.7141L7.4277 26.2128L7.42115 26.2093ZM25.2321 49.9607L7.8264 40.628V28.1599L19.2923 34.3244C19.4075 34.3862 19.5332 34.4164 19.6579 34.4164C19.8569 34.4164 20.0535 34.3398 20.2012 34.1934L25.2321 29.2031V49.9607ZM26 26.4982L8.6751 17.2089L26.0004 7.91944L43.3253 17.2087L26 26.4982ZM44.5818 26.2078L44.5694 26.2144L40.7437 28.2713C40.5625 28.3678 40.4314 28.5293 40.373 28.7243C40.3147 28.9194 40.3362 29.1255 40.4334 29.3043C40.5686 29.5501 40.8276 29.7025 41.1092 29.7025C41.2362 29.7025 41.3631 29.6709 41.4747 29.6111L44.1735 28.16V40.6283L26.7679 49.9608V29.2027L31.7992 34.1934C31.9447 34.3376 32.1371 34.4168 32.3419 34.4168C32.4688 34.4168 32.5948 34.3843 32.7074 34.3244L38.7748 31.0623C38.9551 30.9658 39.0861 30.8043 39.1445 30.6093C39.2028 30.4143 39.1813 30.2092 39.0841 30.0304C38.9489 29.7836 38.6899 29.6313 38.4073 29.6313C38.2813 29.6313 38.1544 29.6627 38.0428 29.7237L32.4801 32.7135L27.2717 27.5482L44.8013 18.1487L49.9657 23.3132L44.5818 26.2078Z" fill="black" stroke="black" stroke-width="2" mask="url(#path-1-inside-1)"/>
</svg>
