<svg width="50" height="48" viewBox="0 0 50 48" fill="none" xmlns="http://www.w3.org/2000/svg">
<path d="M6.44531 3.75H10.9375V1.5C10.9375 0.671625 11.637 0 12.5 0C13.363 0 14.0625 0.671625 14.0625 1.5V3.75H35.9375V1.5C35.9375 0.671625 36.637 0 37.5 0C38.363 0 39.0625 0.671625 39.0625 1.5V3.75H43.5547C47.1087 3.75 50 6.52566 50 9.9375V41.8125C50 45.2243 47.1087 48 43.5547 48H6.44531C2.89131 48 0 45.2243 0 41.8125V9.9375C0 6.52566 2.89131 3.75 6.44531 3.75ZM43.5547 6.75H39.0625V8.25C39.0625 9.07837 38.363 9.75 37.5 9.75C36.637 9.75 35.9375 9.07837 35.9375 8.25V6.75H14.0625V8.25C14.0625 9.07837 13.363 9.75 12.5 9.75C11.637 9.75 10.9375 9.07837 10.9375 8.25V6.75H6.44531C4.61445 6.75 3.125 8.17988 3.125 9.9375V13.5H46.875V9.9375C46.875 8.17988 45.3855 6.75 43.5547 6.75ZM6.44531 45H43.5547C45.3855 45 46.875 43.5701 46.875 41.8125V16.5H3.125V41.8125C3.125 43.5701 4.61445 45 6.44531 45Z" fill="#1F1F1F"/>
</svg>
