<svg width="22" height="22" viewBox="0 0 22 22" fill="none" xmlns="http://www.w3.org/2000/svg">
<path d="M10.6272 19.9675C10.6272 21.09 9.80918 22 8.80012 22C7.79106 22 6.97308 21.09 6.97308 19.9675C6.97308 18.8449 7.79107 17.9349 8.80013 17.9349C9.80919 17.9349 10.6272 18.8449 10.6272 19.9675ZM16.198 17.9349C15.1889 17.9349 14.3709 18.8449 14.3709 19.9675C14.3709 21.09 15.1889 22 16.198 22C17.207 22 18.025 21.09 18.025 19.9675C18.025 18.8449 17.207 17.9349 16.198 17.9349ZM21.8693 8.39338L19.6211 15.8268C19.6211 15.8268 19.435 16.93 18.4869 16.93C17.5387 16.93 8.26626 16.93 7.13472 16.93C6.00318 16.93 5.95563 15.5473 5.95563 15.5473C5.95563 15.5473 4.74938 5.59168 4.68961 4.99023C4.62983 4.38877 3.93842 3.94298 3.93842 3.94298L0.963524 2.39706C-0.665194 1.44955 0.0751293 -0.353279 0.963524 0.0607856C4.73579 2.04042 6.48813 3.01513 6.60088 3.79489C6.71499 4.57616 6.91331 6.45758 6.91331 6.45758V6.46966C6.9364 6.46211 6.9527 6.45758 6.9527 6.45758C6.9527 6.45758 18.5208 6.45758 20.8573 6.45758C22.5362 6.45758 21.8693 8.39641 21.8693 8.39338ZM18.6173 12.5325L18.5942 12.534H7.58843L7.81528 14.5348H18.0821L18.6173 12.5325ZM19.689 8.49766H7.13336L7.37516 10.636C9.7836 10.636 16.8364 10.636 19.1212 10.636L19.689 8.49766Z" fill="#1F1F1F"/>
</svg>
