<svg width="43" height="43" viewBox="0 0 43 43" fill="none" xmlns="http://www.w3.org/2000/svg">
<path d="M31.1331 0H11.8661C5.32315 0 0 5.3234 0 11.8664V31.1334C0 37.6766 5.32315 42.9997 11.8661 42.9997H31.1331C37.6766 42.9997 42.9997 37.6763 42.9997 31.1334V11.8664C43 5.3234 37.6766 0 31.1331 0ZM39.1849 31.1334C39.1849 35.5729 35.5729 39.1846 31.1334 39.1846H11.8661C7.42682 39.1849 3.81515 35.5729 3.81515 31.1334V11.8664C3.81515 7.42707 7.42682 3.81515 11.8661 3.81515H31.1331C35.5727 3.81515 39.1846 7.42707 39.1846 11.8664V31.1334H39.1849Z" fill="#1F1F1F"/>
<path d="M21.4989 10.4189C15.3893 10.4189 10.4189 15.3893 10.4189 21.4989C10.4189 27.6082 15.3893 32.5783 21.4989 32.5783C27.6085 32.5783 32.5788 27.6082 32.5788 21.4989C32.5788 15.3893 27.6085 10.4189 21.4989 10.4189ZM21.4989 28.7629C17.4932 28.7629 14.2341 25.5043 14.2341 21.4986C14.2341 17.4927 17.493 14.2338 21.4989 14.2338C25.5048 14.2338 28.7637 17.4927 28.7637 21.4986C28.7637 25.5043 25.5045 28.7629 21.4989 28.7629Z" fill="#1F1F1F"/>
<path d="M33.0448 7.18555C32.3098 7.18555 31.5877 7.48313 31.0686 8.00453C30.5469 8.52339 30.2471 9.24573 30.2471 9.98332C30.2471 10.7186 30.5472 11.4407 31.0686 11.9621C31.5875 12.481 32.3098 12.7811 33.0448 12.7811C33.7824 12.7811 34.5022 12.481 35.0236 11.9621C35.545 11.4407 35.8426 10.7184 35.8426 9.98332C35.8426 9.24573 35.545 8.52339 35.0236 8.00453C34.5048 7.48313 33.7824 7.18555 33.0448 7.18555Z" fill="#1F1F1F"/>
</svg>
