<svg width="51" height="58" viewBox="0 0 51 58" fill="none" xmlns="http://www.w3.org/2000/svg">
<path d="M44.4964 23.1208H21.7572C22.8087 21.9753 23.4476 20.4811 23.4476 18.8473C23.4476 15.2518 20.361 12.3267 16.5671 12.3267C12.7731 12.3267 9.68653 15.2518 9.68653 18.8473C9.68653 20.4811 10.3254 21.9753 11.3768 23.1208H5.94871C2.66859 23.1208 0 25.6498 0 28.7583V35.4105C0 36.0332 0.532648 36.538 1.18974 36.538C1.84684 36.538 2.37949 36.0332 2.37949 35.4105V28.7583C2.37949 26.8932 3.98064 25.3758 5.94871 25.3758H39.2615C41.2296 25.3758 42.8307 26.8932 42.8307 28.7583V34.8469H30.4574C27.1773 34.8469 24.5087 37.3759 24.5087 40.4844C24.5087 43.5929 27.1773 46.122 30.4574 46.122H42.8307V52.2105C42.8307 54.0756 41.2296 55.593 39.2615 55.593H5.94871C3.98064 55.593 2.37949 54.0756 2.37949 52.2105V45.5494C2.37949 44.9267 1.84684 44.4219 1.18974 44.4219C0.532648 44.4219 0 44.9267 0 45.5494V52.2105C0 55.319 2.66859 57.8481 5.94871 57.8481H44.4964C47.7765 57.8481 50.4451 55.319 50.4451 52.2105V28.7583C50.4451 25.6498 47.7765 23.1208 44.4964 23.1208ZM16.5671 14.5818C19.049 14.5818 21.0681 16.4953 21.0681 18.8474C21.0681 21.1995 19.049 23.113 16.5671 23.113C14.0852 23.113 12.066 21.1995 12.066 18.8474C12.066 16.4953 14.0851 14.5818 16.5671 14.5818ZM44.0173 25.3758H44.4964C46.4645 25.3758 48.0656 26.8932 48.0656 28.7583V34.8469H45.2102V28.7583C45.2102 27.4902 44.7659 26.3187 44.0173 25.3758ZM26.8882 40.4844C26.8882 38.6193 28.4893 37.1019 30.4574 37.1019H48.0656V43.8669H30.4574C28.4893 43.8669 26.8882 42.3495 26.8882 40.4844ZM44.4964 55.593H44.0173C44.7659 54.6501 45.2102 53.4787 45.2102 52.2105V46.122H48.0656V52.2105C48.0656 54.0756 46.4645 55.593 44.4964 55.593Z" fill="#1F1F1F"/>
<path d="M30.1526 39.3574C29.8385 39.3574 29.5316 39.4782 29.3103 39.6881C29.089 39.8979 28.9629 40.1891 28.9629 40.4859C28.9629 40.7826 29.089 41.0738 29.3103 41.2837C29.5328 41.4936 29.8385 41.6143 30.1526 41.6143C30.4655 41.6143 30.7713 41.4936 30.9938 41.2837C31.2151 41.0738 31.3424 40.7826 31.3424 40.4859C31.3424 40.1891 31.2151 39.8979 30.9938 39.6881C30.7725 39.4781 30.4655 39.3574 30.1526 39.3574Z" fill="#1F1F1F"/>
<path d="M33.8786 15.5242C37.6725 15.5242 40.7591 12.5991 40.7591 9.00356C40.7591 5.40814 37.6725 2.48291 33.8786 2.48291C30.0846 2.48291 26.998 5.40802 26.998 9.00356C26.998 12.5991 30.0846 15.5242 33.8786 15.5242ZM33.8786 4.73805C36.3604 4.73805 38.3796 6.65156 38.3796 9.00367C38.3796 11.3558 36.3605 13.2693 33.8786 13.2693C31.3966 13.2693 29.3775 11.3558 29.3775 9.00367C29.3775 6.65156 31.3966 4.73805 33.8786 4.73805Z" fill="#1F1F1F"/>
<path d="M22.2581 11.1154C22.9152 11.1154 23.4478 10.6106 23.4478 9.98782V1.12754C23.4478 0.504798 22.9152 0 22.2581 0C21.601 0 21.0684 0.504798 21.0684 1.12754V9.98782C21.0684 10.6106 21.601 11.1154 22.2581 11.1154Z" fill="#1F1F1F"/>
<path d="M16.5472 7.2213C17.2043 7.2213 17.7369 6.71615 17.7369 6.09297V1.12833C17.7369 0.505152 17.2043 0 16.5472 0C15.8901 0 15.3574 0.505152 15.3574 1.12833V6.09297C15.3574 6.71615 15.8901 7.2213 16.5472 7.2213Z" fill="#1F1F1F"/>
<path d="M1.18974 41.6143C1.50265 41.6143 1.8096 41.4936 2.03089 41.2837C2.25218 41.0738 2.37949 40.7826 2.37949 40.4859C2.37949 40.1891 2.25218 39.8979 2.03089 39.6881C1.8096 39.4782 1.50384 39.3574 1.18974 39.3574C0.876841 39.3574 0.569887 39.4782 0.348595 39.6881C0.127303 39.8979 0 40.1891 0 40.4859C0 40.7826 0.127303 41.0738 0.348595 41.2837C0.569887 41.4936 0.876722 41.6143 1.18974 41.6143Z" fill="#1F1F1F"/>
</svg>
