<svg width="43" height="46" viewBox="0 0 43 46" fill="none" xmlns="http://www.w3.org/2000/svg">
<path d="M40.9145 10.7649C40.4856 10.2291 39.9867 9.73985 39.4338 9.3032C39.5077 10.6887 39.3807 12.1648 39.0504 13.7272C38.1487 17.9958 35.9925 21.623 32.815 24.2161C29.6401 26.8074 25.6755 28.1772 21.3502 28.1772H15.0428L13.0011 37.8431C12.6002 39.7401 10.9166 41.1165 8.99753 41.1165H6.15428L5.64232 43.4913C5.51083 44.1029 5.66009 44.7418 6.0486 45.2292C6.43691 45.7165 7.02318 46 7.64259 46H14.5932C15.559 46 16.3936 45.3178 16.5951 44.3633L18.9824 33.0605H26.9459C30.798 33.0605 34.3176 31.8496 37.1248 29.5588C39.9333 27.2671 41.8419 24.0467 42.6444 20.2467C43.4572 16.4044 42.8751 13.2143 40.9145 10.7649Z" fill="black"/>
<path d="M10.9996 37.4112L13.3869 26.1086H21.3504C25.2023 26.1086 28.7221 24.8976 31.5292 22.6067C34.3375 20.315 36.2463 17.0946 37.049 13.2947C37.8615 9.45234 37.2797 6.26226 35.3188 3.81294C33.4367 1.461 30.2192 0 26.9229 0H9.57253C8.60997 0 7.77743 0.677792 7.57246 1.6281L0.0468494 36.5395C-0.0848506 37.151 0.0644094 37.7899 0.453134 38.2774C0.841231 38.7646 1.4273 39.048 2.04691 39.048H8.99775C9.96355 39.048 10.7976 38.3659 10.9996 37.4112ZM17.3696 7.95257H22.8288C24.113 7.95257 25.2615 8.49643 25.9796 9.44494C26.7423 10.4525 26.9654 11.8457 26.5914 13.2673C26.5865 13.2853 26.5822 13.3034 26.5777 13.3218C25.891 16.2508 23.0352 18.6337 20.2124 18.6337H14.981L17.3696 7.95257Z" fill="black"/>
</svg>
