<svg width="65" height="41" viewBox="0 0 65 41" fill="none" xmlns="http://www.w3.org/2000/svg">
<path d="M59.5833 41H5.41667C3.98057 40.9985 2.60376 40.458 1.58829 39.4972C0.572813 38.5364 0.0016121 37.2338 0 35.875V5.125C0.0016121 3.76623 0.572813 2.46356 1.58829 1.50276C2.60376 0.54197 3.98057 0.00152604 5.41667 0H59.5833C61.0194 0.00152604 62.3962 0.54197 63.4117 1.50276C64.4272 2.46356 64.9984 3.76623 65 5.125V35.875C64.9984 37.2338 64.4272 38.5364 63.4117 39.4972C62.3962 40.458 61.0194 40.9985 59.5833 41ZM62.8333 5.125C62.8323 4.30975 62.4896 3.52816 61.8803 2.9517C61.271 2.37523 60.445 2.05095 59.5833 2.05H5.41667C4.55502 2.05095 3.72895 2.37523 3.11968 2.9517C2.5104 3.52816 2.16767 4.30975 2.16667 5.125V35.875C2.16767 36.6903 2.5104 37.4718 3.11968 38.0483C3.72895 38.6248 4.55502 38.9491 5.41667 38.95H59.5833C60.445 38.9491 61.271 38.6248 61.8803 38.0483C62.4896 37.4718 62.8323 36.6903 62.8333 35.875V5.125Z" fill="black"/>
<path d="M55.25 16.4H50.9167C50.055 16.399 49.229 16.0748 48.6197 15.4983C48.0104 14.9218 47.6677 14.1402 47.6667 13.325V9.225C47.6677 8.40975 48.0104 7.62816 48.6197 7.0517C49.229 6.47523 50.055 6.15095 50.9167 6.15H55.25C56.1116 6.15095 56.9377 6.47523 57.547 7.0517C58.1563 7.62816 58.499 8.40975 58.5 9.225V13.325C58.499 14.1402 58.1563 14.9218 57.547 15.4983C56.9377 16.0748 56.1116 16.399 55.25 16.4ZM55.25 8.2H50.9167C50.6294 8.2003 50.3541 8.30839 50.151 8.50055C49.9479 8.69271 49.8337 8.95325 49.8333 9.225V10.25H50.9167C51.204 10.25 51.4795 10.358 51.6827 10.5502C51.8859 10.7424 52 11.0032 52 11.275C52 11.5468 51.8859 11.8076 51.6827 11.9998C51.4795 12.192 51.204 12.3 50.9167 12.3H49.8333V13.325C49.8337 13.5968 49.9479 13.8573 50.151 14.0494C50.3541 14.2416 50.6294 14.3497 50.9167 14.35H55.25C55.5372 14.3497 55.8126 14.2416 56.0157 14.0494C56.2188 13.8573 56.333 13.5968 56.3333 13.325V12.3H55.25C54.9627 12.3 54.6871 12.192 54.484 11.9998C54.2808 11.8076 54.1667 11.5468 54.1667 11.275C54.1667 11.0032 54.2808 10.7424 54.484 10.5502C54.6871 10.358 54.9627 10.25 55.25 10.25H56.3333V9.225C56.333 8.95325 56.2188 8.69271 56.0157 8.50055C55.8126 8.30839 55.5372 8.2003 55.25 8.2Z" fill="black"/>
<path d="M57.4167 30.75H41.1667C40.8793 30.75 40.6038 30.642 40.4006 30.4498C40.1975 30.2576 40.0833 29.9968 40.0833 29.725C40.0833 29.4532 40.1975 29.1924 40.4006 29.0002C40.6038 28.808 40.8793 28.7 41.1667 28.7H57.4167C57.704 28.7 57.9795 28.808 58.1827 29.0002C58.3859 29.1924 58.5 29.4532 58.5 29.725C58.5 29.9968 58.3859 30.2576 58.1827 30.4498C57.9795 30.642 57.704 30.75 57.4167 30.75Z" fill="black"/>
<path d="M57.4167 34.85L35.75 34.8508C35.4627 34.8508 35.1871 34.7428 34.984 34.5506C34.7808 34.3583 34.6667 34.0976 34.6667 33.8258C34.6667 33.5539 34.7808 33.2932 34.984 33.101C35.1871 32.9088 35.4627 32.8008 35.75 32.8008L57.4167 32.8C57.704 32.8 57.9795 32.908 58.1827 33.1002C58.3859 33.2924 58.5 33.5532 58.5 33.825C58.5 34.0968 58.3859 34.3576 58.1827 34.5498C57.9795 34.742 57.704 34.85 57.4167 34.85Z" fill="black"/>
<path d="M15.1665 36.9C14.2157 36.9007 13.2816 36.663 12.4595 36.2112C11.6361 36.6619 10.7018 36.8994 9.75061 36.9C8.7994 36.9006 7.86479 36.6641 7.04082 36.2145C6.21684 35.7648 5.53254 35.1178 5.05676 34.3384C4.58098 33.5591 4.33049 32.675 4.33049 31.775C4.33049 30.875 4.58098 29.9909 5.05676 29.2116C5.53254 28.4322 6.21684 27.7852 7.04082 27.3355C7.86479 26.8859 8.7994 26.6494 9.75061 26.65C10.7018 26.6506 11.6361 26.8881 12.4595 27.3388C13.1789 26.9457 13.9842 26.7145 14.8132 26.663C15.6422 26.6116 16.4726 26.7413 17.2401 27.0421C18.0076 27.3428 18.6917 27.8067 19.2395 28.3977C19.7872 28.9886 20.1839 29.6909 20.3989 30.4502C20.6139 31.2094 20.6413 32.0053 20.4792 32.7762C20.317 33.5471 19.9696 34.2724 19.4637 34.8959C18.9579 35.5195 18.3072 36.0245 17.562 36.372C16.8169 36.7195 15.9972 36.9002 15.1665 36.9ZM6.49979 31.775C6.49955 32.2581 6.61968 32.7345 6.85043 33.1654C7.08118 33.5964 7.41605 33.9698 7.82787 34.2554C8.23969 34.541 8.71687 34.7307 9.22069 34.8092C9.72451 34.8877 10.2408 34.8527 10.7276 34.707C10.0912 33.8479 9.7498 32.8242 9.7498 31.7751C9.7498 30.7259 10.0912 29.7022 10.7276 28.8431C10.2408 28.6974 9.7245 28.6623 9.22066 28.7407C8.71681 28.8192 8.2396 29.0089 7.82776 29.2945C7.41592 29.5801 7.08104 29.9535 6.85031 30.3845C6.61958 30.8155 6.49949 31.2919 6.49979 31.775ZM15.1665 28.7C14.5237 28.7 13.8953 28.8803 13.3609 29.2182C12.8264 29.5561 12.4098 30.0364 12.1638 30.5983C11.9179 31.1601 11.8535 31.7784 11.9789 32.3749C12.1043 32.9714 12.4138 33.5193 12.8684 33.9493C13.3229 34.3794 13.902 34.6723 14.5324 34.7909C15.1628 34.9096 15.8163 34.8487 16.4102 34.6159C17.004 34.3832 17.5116 33.9891 17.8687 33.4834C18.2258 32.9777 18.4165 32.3832 18.4165 31.775C18.4154 30.9597 18.0727 30.1782 17.4634 29.6017C16.8542 29.0252 16.0281 28.701 15.1665 28.7Z" fill="black"/>
<path d="M9.15123 16.2917C9.02402 16.352 8.88548 16.388 8.74355 16.3976C8.60161 16.4072 8.45907 16.3902 8.32408 16.3477C8.18908 16.3051 8.06428 16.2378 7.95682 16.1495C7.84936 16.0613 7.76134 15.9538 7.6978 15.8334C7.64878 15.7407 6.50004 13.541 6.50004 11.2749C6.50004 9.00893 7.64878 6.80915 7.6978 6.71652C7.82743 6.47545 8.0525 6.29263 8.32397 6.20789C8.59544 6.12316 8.8913 6.14338 9.14709 6.26415C9.40287 6.38491 9.59784 6.59644 9.6895 6.85263C9.78116 7.10882 9.76208 7.3889 9.63643 7.63184C9.62668 7.65042 8.66671 9.5017 8.66671 11.2749C8.66671 13.0482 9.62668 14.8995 9.63561 14.9165C9.76411 15.1596 9.78526 15.4411 9.69443 15.699C9.60359 15.9569 9.40819 16.1701 9.15123 16.2917Z" fill="black"/>
<path d="M18.0995 14.0497C17.9989 14.1449 17.8795 14.2204 17.748 14.2719C17.6166 14.3234 17.4757 14.3499 17.3334 14.3499C17.1912 14.3499 17.0503 14.3234 16.9188 14.2719C16.7874 14.2204 16.668 14.1449 16.5674 14.0497C16.424 13.9143 15.1668 12.6843 15.1668 11.2749C15.1668 9.86554 16.424 8.63554 16.5674 8.50011C16.7702 8.30751 17.0455 8.19901 17.3328 8.19848C17.6201 8.19795 17.8959 8.30543 18.0995 8.49729C18.303 8.68915 18.4177 8.94966 18.4183 9.22151C18.4188 9.49336 18.3052 9.75429 18.1025 9.9469C17.7924 10.245 17.3334 10.8734 17.3334 11.2749C17.3334 11.6765 17.7924 12.3048 18.0995 12.6001C18.2001 12.6953 18.2799 12.8083 18.3343 12.9326C18.3888 13.057 18.4168 13.1903 18.4168 13.3249C18.4168 13.4595 18.3888 13.5928 18.3343 13.7172C18.2799 13.8415 18.2001 13.9545 18.0995 14.0497Z" fill="black"/>
<path d="M57.4167 22.55H50.9167C50.6293 22.55 50.3538 22.442 50.1506 22.2498C49.9475 22.0576 49.8333 21.7968 49.8333 21.525C49.8333 21.2532 49.9475 20.9924 50.1506 20.8002C50.3538 20.608 50.6293 20.5 50.9167 20.5H57.4167C57.704 20.5 57.9795 20.608 58.1827 20.8002C58.3859 20.9924 58.5 21.2532 58.5 21.525C58.5 21.7968 58.3859 22.0576 58.1827 22.2498C57.9795 22.442 57.704 22.55 57.4167 22.55Z" fill="black"/>
<path d="M44.4167 22.55H37.9167C37.6293 22.55 37.3538 22.442 37.1506 22.2498C36.9475 22.0576 36.8333 21.7968 36.8333 21.525C36.8333 21.2532 36.9475 20.9924 37.1506 20.8002C37.3538 20.608 37.6293 20.5 37.9167 20.5H44.4167C44.704 20.5 44.9795 20.608 45.1827 20.8002C45.3859 20.9924 45.5 21.2532 45.5 21.525C45.5 21.7968 45.3859 22.0576 45.1827 22.2498C44.9795 22.442 44.704 22.55 44.4167 22.55Z" fill="black"/>
<path d="M31.4167 22.55H24.9167C24.6293 22.55 24.3538 22.442 24.1506 22.2498C23.9475 22.0576 23.8333 21.7968 23.8333 21.525C23.8333 21.2532 23.9475 20.9924 24.1506 20.8002C24.3538 20.608 24.6293 20.5 24.9167 20.5H31.4167C31.704 20.5 31.9795 20.608 32.1827 20.8002C32.3859 20.9924 32.5 21.2532 32.5 21.525C32.5 21.7968 32.3859 22.0576 32.1827 22.2498C31.9795 22.442 31.704 22.55 31.4167 22.55Z" fill="black"/>
<path d="M18.4167 22.55H11.9167C11.6293 22.55 11.3538 22.442 11.1506 22.2498C10.9475 22.0576 10.8333 21.7968 10.8333 21.525C10.8333 21.2532 10.9475 20.9924 11.1506 20.8002C11.3538 20.608 11.6293 20.5 11.9167 20.5H18.4167C18.704 20.5 18.9795 20.608 19.1827 20.8002C19.3859 20.9924 19.5 21.2532 19.5 21.525C19.5 21.7968 19.3859 22.0576 19.1827 22.2498C18.9795 22.442 18.704 22.55 18.4167 22.55Z" fill="black"/>
<path d="M12.2339 7.47522C12.4371 7.28299 12.7126 7.175 13 7.175C13.2873 7.175 13.5629 7.28299 13.766 7.47522C13.9692 7.66745 14.0833 7.92817 14.0833 8.20003C14.0833 8.47188 13.9692 8.7326 13.766 8.92483C13.7584 8.93213 13 9.7192 13 11.275C13 12.8308 13.7464 13.6049 13.7781 13.637L13.766 13.6252C13.9692 13.8175 14.0833 14.0782 14.0833 14.35C14.0833 14.6219 13.9692 14.8826 13.766 15.0748C13.5629 15.2671 13.2873 15.3751 13 15.3751C12.7126 15.3751 12.4371 15.2671 12.2339 15.0748C12.0905 14.9394 10.8333 13.6801 10.8333 11.275C10.8333 8.86999 12.0905 7.61065 12.2339 7.47522Z" fill="black"/>
</svg>
