<svg width="53" height="53" viewBox="0 0 53 53" fill="none" xmlns="http://www.w3.org/2000/svg">
<path d="M30.7932 47.2805C30.6033 47.2805 30.4211 47.205 30.2868 47.0706L8.65139 25.4352C8.57147 25.3553 8.51158 25.2577 8.4766 25.1503C8.44162 25.0429 8.43255 24.9287 8.45013 24.8171L10.9469 9.00662C10.9704 8.85706 11.0408 8.71882 11.1479 8.61176C11.255 8.50469 11.3932 8.43432 11.5428 8.41073L27.3525 5.914C27.4641 5.89642 27.5783 5.90549 27.6857 5.94047C27.7931 5.97544 27.8907 6.03534 27.9706 6.11525L49.6061 27.7507C49.7403 27.885 49.8158 28.0672 49.8158 28.2571C49.8158 28.447 49.7403 28.6291 49.6061 28.7634L31.2989 47.0706C31.1647 47.2048 30.9829 47.2803 30.7932 47.2805ZM9.92195 24.6796L30.7932 45.5515L48.087 28.2571L27.2164 7.38654L12.2805 9.74432L9.92195 24.6796Z" fill="#1F1F1F"/>
<path d="M18.3111 19.4317C17.4652 19.4311 16.6457 19.1373 15.9922 18.6003C15.3387 18.0633 14.8916 17.3163 14.7271 16.4866C14.5625 15.6569 14.6908 14.7959 15.0899 14.0501C15.489 13.3043 16.1344 12.72 16.916 12.3968C17.6977 12.0735 18.5672 12.0312 19.3765 12.2771C20.1858 12.523 20.8848 13.0419 21.3545 13.7454C21.8241 14.4489 22.0353 15.2934 21.9521 16.1352C21.8688 16.9769 21.4963 17.7638 20.898 18.3617C20.5586 18.7016 20.1553 18.9712 19.7113 19.1548C19.2673 19.3384 18.7915 19.4325 18.3111 19.4317ZM18.3111 13.5494C17.7961 13.5497 17.2972 13.7285 16.8993 14.0553C16.5014 14.3821 16.2291 14.8368 16.1289 15.3418C16.0286 15.8469 16.1065 16.3711 16.3493 16.8252C16.5921 17.2792 16.9848 17.6351 17.4606 17.8321C17.9363 18.0291 18.4656 18.055 18.9584 17.9056C19.4511 17.7561 19.8768 17.4404 20.1629 17.0123C20.4491 16.5842 20.5779 16.0701 20.5275 15.5577C20.4772 15.0453 20.2507 14.5661 19.8867 14.2019C19.6804 13.9941 19.4349 13.8294 19.1644 13.7173C18.8939 13.6052 18.6039 13.5479 18.3111 13.5487V13.5494Z" fill="#1F1F1F"/>
<path d="M4.15927 25.3705L3.25182 23.4238C3.20403 23.3215 3.18113 23.2093 3.18499 23.0964C3.18885 22.9835 3.21936 22.8731 3.27402 22.7742L11.0299 8.77148L12.2833 9.4655L4.70359 23.1488L5.45777 24.7646L4.15927 25.3705Z" fill="#1F1F1F"/>
<path d="M16.8315 51.5672C16.6952 51.5672 16.5618 51.5283 16.4468 51.4551C16.3319 51.3819 16.2402 51.2774 16.1826 51.154L5.45508 28.1469L6.75358 27.541L17.1781 49.8991L28.9742 44.3986L29.5801 45.6942L17.1351 51.4956C17.0404 51.5415 16.9367 51.566 16.8315 51.5672Z" fill="#1F1F1F"/>
<path d="M16.5614 17.1174C16.1193 17.1134 15.6792 17.0593 15.2493 16.9563L15.5694 15.5604C16.1596 15.695 17.2346 15.8376 17.804 15.2689C18.3619 14.7109 18.3598 13.5435 17.7969 12.0667C16.9687 10.1086 15.7502 8.33985 14.2158 6.86838C10.6834 3.336 6.95334 2.14135 5.81527 3.27942C4.67721 4.41749 5.87186 8.14969 9.40423 11.6799C9.64297 11.9158 9.88171 12.1431 10.1204 12.3618L9.15929 13.4239C8.90097 13.1899 8.64505 12.9462 8.3915 12.6927C4.39573 8.69831 2.85301 4.21552 4.80183 2.26669C6.75065 0.317866 11.2335 1.8606 15.2285 5.85565C16.9057 7.46989 18.2353 9.40997 19.1355 11.5567C19.9233 13.6144 19.8073 15.2925 18.8175 16.2838C18.5174 16.5682 18.1628 16.7888 17.775 16.9321C17.3872 17.0754 16.9743 17.1385 16.5614 17.1174Z" fill="#1F1F1F"/>
</svg>
