<svg width="64" height="41" viewBox="0 0 64 41" fill="none" xmlns="http://www.w3.org/2000/svg">
<path d="M63.4296 36.5694C63.2575 36.246 62.1935 33.65 57.0731 28.3142C51.7127 22.7269 52.4327 23.6342 58.8892 13.9732C62.8215 8.08941 64.3936 4.49628 63.9016 2.96022C63.4336 1.49602 60.5413 1.88228 60.5413 1.88228L50.9246 1.94516C50.9246 1.94516 50.2126 1.83737 49.6805 2.19219C49.1645 2.54252 48.8325 3.35097 48.8325 3.35097C48.8325 3.35097 47.3084 7.90526 45.2762 11.7768C40.9919 19.9467 39.2758 20.3779 38.5757 19.8704C36.9476 18.6891 37.3556 15.1185 37.3556 12.5853C37.3556 4.66695 38.4237 1.36577 35.2715 0.512401C34.2234 0.229442 33.4553 0.0408031 30.7792 0.00936329C27.3469 -0.0310594 24.4387 0.0228375 22.7946 0.92561C21.6985 1.52746 20.8544 2.87039 21.3705 2.94675C22.0065 3.04106 23.4466 3.38241 24.2107 4.55018C25.1987 6.0548 25.1627 9.44132 25.1627 9.44132C25.1627 9.44132 25.7308 18.761 23.8386 19.9198C22.5385 20.7148 20.7584 19.0934 16.9381 11.678C14.982 7.8828 13.5019 3.68334 13.5019 3.68334C13.5019 3.68334 13.2179 2.90183 12.7098 2.48413C12.0938 1.9766 11.2297 1.81491 11.2297 1.81491L2.08505 1.87779C2.08505 1.87779 0.712945 1.9227 0.208908 2.59192C-0.239125 3.18928 0.172906 4.41993 0.172906 4.41993C0.172906 4.41993 7.33343 23.2254 15.438 32.7068C22.8746 41.3977 31.3152 40.8273 31.3152 40.8273H35.1395C35.1395 40.8273 36.2956 40.6835 36.8836 39.9694C37.4276 39.3137 37.4076 38.083 37.4076 38.083C37.4076 38.083 37.3316 32.3205 39.7158 31.4717C42.064 30.6363 45.0802 37.041 48.2764 39.5068C50.6926 41.3707 52.5288 40.962 52.5288 40.962L61.0774 40.8273C61.0774 40.8273 65.5497 40.5174 63.4296 36.5694Z" fill="#1F1F1F"/>
</svg>
