<?xml version="1.0" encoding="utf-8"?><svg viewBox="0 0 86 86" xmlns="http://www.w3.org/2000/svg" xmlns:xlink="http://www.w3.org/1999/xlink"><style>:root>svg{display:none}:root>svg:target{display:block}</style><svg fill="none" viewBox="0 0 71 69" id="big-box" xmlns="http://www.w3.org/2000/svg"><path d="M62.125 46V23a5.627 5.627 0 00-.794-2.872 5.836 5.836 0 00-2.164-2.102l-20.709-11.5c-.9-.504-1.92-.77-2.958-.77a6.049 6.049 0 00-2.958.77l-20.709 11.5a5.836 5.836 0 00-2.164 2.102A5.626 5.626 0 008.875 23v23a5.626 5.626 0 00.794 2.872 5.836 5.836 0 002.164 2.102l20.709 11.5c.9.504 1.92.77 2.958.77a6.049 6.049 0 002.958-.77l20.709-11.5a5.836 5.836 0 002.164-2.102c.519-.873.793-1.864.794-2.872z" stroke="#1F1F1F" stroke-width="2" stroke-linecap="round" stroke-linejoin="round"/><path d="M9.674 20.01L35.5 34.528 61.326 20.01M35.5 63.48V34.5" stroke="#1F1F1F" stroke-width="2" stroke-linecap="round" stroke-linejoin="round"/></svg><svg fill="none" viewBox="0 0 52 51" id="big-which" xmlns="http://www.w3.org/2000/svg"><path d="M37.7.292C33.042.3 28.678 2.702 26 6.734 23.322 2.703 18.958.3 14.3.292 6.682.292 0 7.789 0 16.334c0 8.328 4.446 16.905 12.858 24.805a69.291 69.291 0 0012.744 9.467c.25.136.546.136.796 0a69.299 69.299 0 0012.74-9.467C47.554 33.239 52 24.66 52 16.334 52 7.789 45.318.292 37.7.292zM26 48.75C22.817 46.892 1.733 33.91 1.733 16.334c0-7.57 5.872-14.209 12.567-14.209 4.536.009 8.717 2.597 10.945 6.776a.89.89 0 00.755.431.89.89 0 00.755-.431c2.228-4.18 6.41-6.767 10.945-6.776 6.695 0 12.567 6.64 12.567 14.209C50.267 33.91 29.183 46.892 26 48.75z" fill="#1F1F1F"/></svg><svg fill="none" viewBox="0 0 52 52" id="box" xmlns="http://www.w3.org/2000/svg"><mask id="ca" fill="#fff"><path d="M46.024 17.209l5.753-5.754a.758.758 0 00-.179-1.206L32.708.093a.773.773 0 00-.91.131L26 5.976 20.2.224a.764.764 0 00-.907-.13l-6.068 3.26a.76.76 0 00-.31 1.033.772.772 0 001.042.307l5.563-2.99 5.208 5.166-17.53 9.398-5.164-5.165 9.222-4.958a.753.753 0 00.31-1.031.768.768 0 00-1.04-.307L.401 10.249a.761.761 0 00-.394.56.76.76 0 00.215.646l5.753 5.754-5.753 5.753a.758.758 0 00.179 1.206l5.889 3.166V41.08c0 .026 0 .053.004.078 0 .012.003.022.004.033l.007.04c.003.017.007.033.012.049l.005.022c.005.017.011.032.018.048l.007.022.02.042.012.025.02.034c.006.01.012.02.02.03.005.01.011.017.017.026l.027.035.016.019.034.036.019.018.035.032c.012.01.025.018.037.027l.022.017a.793.793 0 00.069.04L25.63 51.908a.78.78 0 00.085.039l.019.007a.713.713 0 00.065.02l.024.006a.785.785 0 00.065.012l.023.004a.774.774 0 00.176 0l.022-.004a.775.775 0 00.066-.012l.024-.006a.744.744 0 00.065-.02l.019-.007a.787.787 0 00.085-.04l18.935-10.152a.799.799 0 00.068-.041l.022-.017.037-.027c.013-.01.024-.022.036-.032l.019-.018.033-.036.017-.019c.01-.011.018-.023.026-.035l.018-.025.02-.031.02-.034c.004-.008.007-.017.012-.025l.02-.042.007-.022.017-.048.006-.022c.004-.016.009-.032.012-.049.003-.013.004-.026.006-.04l.005-.033a.732.732 0 00.004-.078V27.334l5.888-3.166a.765.765 0 00.395-.558.764.764 0 00-.214-.648l-5.754-5.753zM32.48 1.703l17.485 9.401-5.164 5.164L27.27 6.87l5.209-5.166zM7.42 26.21l-5.386-2.896 5.164-5.164 17.53 9.4-5.209 5.165-12.092-6.501-.007-.004zm17.811 23.752L7.826 40.628V28.16l11.466 6.164a.773.773 0 00.91-.13l5.03-4.99V49.96zM26 26.498l-17.325-9.29L26 7.92l17.325 9.29L26 26.499zm18.582-.29l-.013.006-3.825 2.057a.755.755 0 00-.371.453.754.754 0 00.06.58.77.77 0 001.042.307l2.698-1.451v12.468l-17.405 9.333V29.203l5.031 4.99a.766.766 0 00.908.131l6.068-3.262a.757.757 0 00.31-1.032.77.77 0 00-1.042-.306l-5.563 2.99-5.208-5.166 17.53-9.4 5.164 5.165-5.384 2.895z"/></mask><path d="M46.024 17.209l5.753-5.754a.758.758 0 00-.179-1.206L32.708.093a.773.773 0 00-.91.131L26 5.976 20.2.224a.764.764 0 00-.907-.13l-6.068 3.26a.76.76 0 00-.31 1.033.772.772 0 001.042.307l5.563-2.99 5.208 5.166-17.53 9.398-5.164-5.165 9.222-4.958a.753.753 0 00.31-1.031.768.768 0 00-1.04-.307L.401 10.249a.761.761 0 00-.394.56.76.76 0 00.215.646l5.753 5.754-5.753 5.753a.758.758 0 00.179 1.206l5.889 3.166V41.08c0 .026 0 .053.004.078 0 .012.003.022.004.033l.007.04c.003.017.007.033.012.049l.005.022c.005.017.011.032.018.048l.007.022.02.042.012.025.02.034c.006.01.012.02.02.03.005.01.011.017.017.026l.027.035.016.019.034.036.019.018.035.032c.012.01.025.018.037.027l.022.017a.793.793 0 00.069.04L25.63 51.908a.78.78 0 00.085.039l.019.007a.713.713 0 00.065.02l.024.006a.785.785 0 00.065.012l.023.004a.774.774 0 00.176 0l.022-.004a.775.775 0 00.066-.012l.024-.006a.744.744 0 00.065-.02l.019-.007a.787.787 0 00.085-.04l18.935-10.152a.799.799 0 00.068-.041l.022-.017.037-.027c.013-.01.024-.022.036-.032l.019-.018.033-.036.017-.019c.01-.011.018-.023.026-.035l.018-.025.02-.031.02-.034c.004-.008.007-.017.012-.025l.02-.042.007-.022.017-.048.006-.022c.004-.016.009-.032.012-.049.003-.013.004-.026.006-.04l.005-.033a.732.732 0 00.004-.078V27.334l5.888-3.166a.765.765 0 00.395-.558.764.764 0 00-.214-.648l-5.754-5.753zM32.48 1.703l17.485 9.401-5.164 5.164L27.27 6.87l5.209-5.166zM7.42 26.21l-5.386-2.896 5.164-5.164 17.53 9.4-5.209 5.165-12.092-6.501-.007-.004zm17.811 23.752L7.826 40.628V28.16l11.466 6.164a.773.773 0 00.91-.13l5.03-4.99V49.96zM26 26.498l-17.325-9.29L26 7.92l17.325 9.29L26 26.499zm18.582-.29l-.013.006-3.825 2.057a.755.755 0 00-.371.453.754.754 0 00.06.58.77.77 0 001.042.307l2.698-1.451v12.468l-17.405 9.333V29.203l5.031 4.99a.766.766 0 00.908.131l6.068-3.262a.757.757 0 00.31-1.032.77.77 0 00-1.042-.306l-5.563 2.99-5.208-5.166 17.53-9.4 5.164 5.165-5.384 2.895z" fill="#000" stroke="#000" stroke-width="2" mask="url(#ca)"/></svg><svg fill="none" viewBox="0 0 50 48" id="calendar" xmlns="http://www.w3.org/2000/svg"><path d="M6.445 3.75h4.492V1.5c0-.828.7-1.5 1.563-1.5s1.563.672 1.563 1.5v2.25h21.874V1.5c0-.828.7-1.5 1.563-1.5s1.563.672 1.563 1.5v2.25h4.492C47.109 3.75 50 6.526 50 9.938v31.874C50 45.224 47.109 48 43.555 48H6.445C2.891 48 0 45.224 0 41.812V9.939C0 6.526 2.891 3.75 6.445 3.75zm37.11 3h-4.492v1.5c0 .828-.7 1.5-1.563 1.5s-1.563-.672-1.563-1.5v-1.5H14.064v1.5c0 .828-.7 1.5-1.563 1.5s-1.563-.672-1.563-1.5v-1.5H6.446c-1.83 0-3.32 1.43-3.32 3.188V13.5h43.75V9.937c0-1.757-1.49-3.187-3.32-3.187zM6.445 45h37.11c1.83 0 3.32-1.43 3.32-3.188V16.5H3.125v25.313c0 1.757 1.49 3.187 3.32 3.187z" fill="#1F1F1F"/></svg><svg fill="none" viewBox="0 0 22 22" id="cart" xmlns="http://www.w3.org/2000/svg"><path d="M10.627 19.968C10.627 21.09 9.81 22 8.8 22s-1.827-.91-1.827-2.032c0-1.123.818-2.033 1.827-2.033 1.01 0 1.827.91 1.827 2.033zm5.571-2.033c-1.01 0-1.827.91-1.827 2.033 0 1.122.818 2.032 1.827 2.032s1.827-.91 1.827-2.032c0-1.123-.818-2.033-1.827-2.033zm5.671-9.542l-2.248 7.434s-.186 1.103-1.134 1.103H7.135c-1.132 0-1.18-1.383-1.18-1.383S4.75 5.592 4.69 4.99c-.06-.601-.752-1.047-.752-1.047L.964 2.397C-.666 1.45.075-.353.964.061 4.736 2.04 6.488 3.015 6.6 3.795c.114.781.312 2.663.312 2.663v.012c.023-.008.04-.012.04-.012h13.904c1.68 0 1.012 1.938 1.012 1.935zm-3.252 4.14l-.023.001H7.588l.227 2h10.267l.535-2.002zm1.072-4.035H7.133l.242 2.138h11.746l.568-2.138z" fill="#1F1F1F"/></svg><svg fill="none" viewBox="0 0 86 86" id="close" xmlns="http://www.w3.org/2000/svg"><path d="M85 1L1 85M1 1l84 84" stroke="#1F1F1F" stroke-linecap="round" stroke-linejoin="round"/></svg><svg fill="none" viewBox="0 0 43 43" id="inst" xmlns="http://www.w3.org/2000/svg"><path d="M31.133 0H11.866C5.323 0 0 5.323 0 11.866v19.267C0 37.677 5.323 43 11.866 43h19.267C37.677 43 43 37.676 43 31.133V11.866C43 5.323 37.677 0 31.133 0zm8.052 31.133c0 4.44-3.612 8.052-8.052 8.052H11.866c-4.44 0-8.05-3.612-8.05-8.052V11.866c0-4.439 3.61-8.05 8.05-8.05h19.267c4.44 0 8.052 3.611 8.052 8.05v19.267z" fill="#1F1F1F"/><path d="M21.499 10.419c-6.11 0-11.08 4.97-11.08 11.08s4.97 11.08 11.08 11.08 11.08-4.97 11.08-11.08-4.97-11.08-11.08-11.08zm0 18.344c-4.006 0-7.265-3.259-7.265-7.264 0-4.006 3.259-7.265 7.265-7.265s7.265 3.259 7.265 7.265c0 4.005-3.26 7.264-7.265 7.264zM33.045 7.186c-.735 0-1.457.297-1.976.819a2.811 2.811 0 00-.822 1.978c0 .736.3 1.458.822 1.98a2.82 2.82 0 001.976.818c.737 0 1.457-.3 1.979-.819a2.819 2.819 0 00.819-1.979 2.81 2.81 0 00-.82-1.978 2.81 2.81 0 00-1.978-.82z" fill="#1F1F1F"/></svg><svg fill="none" viewBox="0 0 36 76" id="left" xmlns="http://www.w3.org/2000/svg"><path d="M35 1L1 38l34 37" stroke="#1F1F1F" stroke-linecap="round" stroke-linejoin="round"/></svg><svg fill="none" viewBox="0 0 51 58" id="pay1" xmlns="http://www.w3.org/2000/svg"><path d="M44.496 23.12H21.757c1.052-1.145 1.69-2.639 1.69-4.273 0-3.595-3.086-6.52-6.88-6.52s-6.88 2.925-6.88 6.52c0 1.634.638 3.128 1.69 4.274H5.949C2.669 23.12 0 25.65 0 28.758v6.652c0 .623.533 1.128 1.19 1.128.657 0 1.19-.505 1.19-1.127v-6.653c0-1.865 1.6-3.382 3.569-3.382h33.313c1.968 0 3.569 1.517 3.569 3.382v6.089H30.457c-3.28 0-5.948 2.529-5.948 5.637 0 3.109 2.668 5.638 5.948 5.638h12.374v6.089c0 1.865-1.601 3.382-3.57 3.382H5.95c-1.968 0-3.57-1.517-3.57-3.383v-6.66c0-.623-.532-1.128-1.19-1.128-.656 0-1.189.505-1.189 1.127v6.662c0 3.108 2.669 5.637 5.949 5.637h38.547c3.28 0 5.95-2.529 5.95-5.637V28.758c0-3.108-2.67-5.637-5.95-5.637zm-27.929-8.538c2.482 0 4.501 1.913 4.501 4.265 0 2.352-2.019 4.266-4.5 4.266-2.483 0-4.502-1.913-4.502-4.266 0-2.352 2.02-4.265 4.501-4.265zm27.45 10.794h.48c1.968 0 3.569 1.517 3.569 3.382v6.089H45.21v-6.089c0-1.268-.444-2.44-1.193-3.382zM26.888 40.484c0-1.865 1.601-3.382 3.57-3.382h17.608v6.765H30.457c-1.968 0-3.569-1.517-3.569-3.383zm17.608 15.109h-.479a5.419 5.419 0 001.193-3.383v-6.088h2.856v6.089c0 1.865-1.602 3.382-3.57 3.382z" fill="#1F1F1F"/><path d="M30.153 39.357c-.314 0-.621.121-.843.331-.221.21-.347.501-.347.798 0 .297.126.588.347.798a1.235 1.235 0 001.684 0c.221-.21.348-.501.348-.798 0-.297-.127-.588-.348-.798a1.232 1.232 0 00-.841-.33zM33.879 15.524c3.794 0 6.88-2.925 6.88-6.52 0-3.596-3.087-6.521-6.88-6.521-3.794 0-6.881 2.925-6.881 6.52 0 3.596 3.087 6.521 6.88 6.521zm0-10.786c2.481 0 4.5 1.914 4.5 4.266 0 2.352-2.018 4.265-4.5 4.265s-4.501-1.913-4.501-4.265c0-2.352 2.019-4.266 4.5-4.266zM22.258 11.115c.657 0 1.19-.504 1.19-1.127v-8.86c0-.623-.533-1.128-1.19-1.128-.657 0-1.19.505-1.19 1.128v8.86c0 .623.533 1.127 1.19 1.127zM16.547 7.221c.657 0 1.19-.505 1.19-1.128V1.128c0-.623-.533-1.128-1.19-1.128-.657 0-1.19.505-1.19 1.128v4.965c0 .623.533 1.128 1.19 1.128zM1.19 41.614c.313 0 .62-.12.84-.33.222-.21.35-.501.35-.798 0-.297-.128-.588-.35-.798a1.233 1.233 0 00-1.682 0c-.22.21-.348.501-.348.798 0 .297.127.588.349.798.22.21.528.33.84.33z" fill="#1F1F1F"/></svg><svg fill="none" viewBox="0 0 43 46" id="pay2" xmlns="http://www.w3.org/2000/svg"><path d="M40.914 10.765a9.181 9.181 0 00-1.48-1.462c.074 1.386-.053 2.862-.384 4.424-.901 4.269-3.057 7.896-6.235 10.49-3.175 2.59-7.14 3.96-11.465 3.96h-6.307L13 37.843c-.4 1.897-2.084 3.273-4.003 3.273H6.154l-.512 2.375c-.131.612.018 1.25.407 1.738.388.488.974.771 1.594.771h6.95c.966 0 1.8-.682 2.002-1.637l2.387-11.303h7.964c3.852 0 7.372-1.21 10.179-3.501 2.808-2.292 4.717-5.512 5.52-9.312.812-3.843.23-7.033-1.73-9.482z" fill="#000"/><path d="M11 37.411l2.387-11.302h7.963c3.852 0 7.372-1.211 10.18-3.502 2.807-2.292 4.716-5.512 5.519-9.312.813-3.843.23-7.033-1.73-9.482C33.437 1.46 30.219 0 26.923 0H9.573c-.963 0-1.796.678-2 1.628L.046 36.54c-.132.612.017 1.25.406 1.738.388.488.974.771 1.594.771h6.95c.967 0 1.8-.682 2.003-1.637zm6.37-29.458h5.459c1.284 0 2.433.543 3.15 1.492.763 1.008.986 2.4.612 3.822l-.013.055c-.687 2.929-3.543 5.312-6.366 5.312h-5.231L17.37 7.953z" fill="#000"/></svg><svg fill="none" viewBox="0 0 65 41" id="pay3" xmlns="http://www.w3.org/2000/svg"><path d="M59.583 41H5.417a5.583 5.583 0 01-3.829-1.503C.573 38.537.002 37.234 0 35.875V5.125c.002-1.359.573-2.661 1.588-3.622A5.583 5.583 0 015.417 0h54.166a5.583 5.583 0 013.829 1.503c1.015.96 1.586 2.263 1.588 3.622v30.75c-.002 1.359-.573 2.661-1.588 3.622A5.583 5.583 0 0159.583 41zm3.25-35.875a2.997 2.997 0 00-.953-2.173 3.35 3.35 0 00-2.297-.902H5.417a3.35 3.35 0 00-2.297.902 2.997 2.997 0 00-.953 2.173v30.75c0 .815.343 1.597.953 2.173.609.577 1.435.901 2.297.902h54.166a3.35 3.35 0 002.297-.902c.61-.576.952-1.358.953-2.173V5.125z" fill="#000"/><path d="M55.25 16.4h-4.333a3.35 3.35 0 01-2.297-.902 2.997 2.997 0 01-.953-2.173v-4.1a2.997 2.997 0 01.953-2.173 3.35 3.35 0 012.297-.902h4.333a3.35 3.35 0 012.297.902c.61.576.952 1.358.953 2.173v4.1a2.997 2.997 0 01-.953 2.173 3.35 3.35 0 01-2.297.902zm0-8.2h-4.333c-.288 0-.563.108-.766.3a1 1 0 00-.318.725v1.025h1.084c.287 0 .563.108.766.3a.998.998 0 01.317.725.998.998 0 01-.317.725c-.203.192-.479.3-.766.3h-1.084v1.025c0 .272.115.532.318.724.203.193.478.3.766.301h4.333c.287 0 .563-.108.766-.3a.999.999 0 00.317-.725V12.3H55.25c-.287 0-.563-.108-.766-.3a.998.998 0 01-.317-.725c0-.272.114-.533.317-.725.203-.192.479-.3.766-.3h1.083V9.225a.999.999 0 00-.317-.724 1.117 1.117 0 00-.766-.301zM57.417 30.75h-16.25c-.288 0-.563-.108-.766-.3a.998.998 0 01-.318-.725c0-.272.114-.533.318-.725.203-.192.478-.3.766-.3h16.25c.287 0 .563.108.766.3a.998.998 0 01.317.725.998.998 0 01-.317.725c-.203.192-.479.3-.766.3zM57.417 34.85H35.75c-.287 0-.563-.107-.766-.3a.998.998 0 01-.317-.724c0-.272.114-.533.317-.725.203-.192.479-.3.766-.3l21.667-.001c.287 0 .563.108.766.3a.998.998 0 01.317.725.998.998 0 01-.317.725c-.203.192-.479.3-.766.3zM15.166 36.9c-.95 0-1.884-.237-2.707-.689a5.656 5.656 0 01-2.708.689 5.656 5.656 0 01-2.71-.685 5.28 5.28 0 01-1.984-1.877 4.914 4.914 0 01-.727-2.563c0-.9.251-1.784.727-2.563a5.28 5.28 0 011.984-1.877 5.656 5.656 0 012.71-.685c.95 0 1.885.238 2.709.689a5.693 5.693 0 014.78-.297c.768.3 1.452.765 2 1.356.547.59.944 1.293 1.159 2.052.215.76.242 1.555.08 2.326a4.998 4.998 0 01-1.015 2.12 5.362 5.362 0 01-1.902 1.476 5.67 5.67 0 01-2.396.528zM6.5 31.775c0 .483.12.96.35 1.39.231.431.566.805.978 1.09a3.35 3.35 0 001.393.554c.504.079 1.02.044 1.507-.102a4.92 4.92 0 01-.978-2.932c0-1.05.341-2.073.978-2.932a3.426 3.426 0 00-1.507-.102 3.35 3.35 0 00-1.393.553 3.124 3.124 0 00-.978 1.09 2.94 2.94 0 00-.35 1.391zm8.666-3.075c-.642 0-1.27.18-1.805.518a3.119 3.119 0 00-1.197 1.38 2.922 2.922 0 00-.185 1.777c.125.596.435 1.144.89 1.574a3.31 3.31 0 001.663.842c.63.119 1.284.058 1.878-.175a3.218 3.218 0 001.459-1.133c.357-.505.547-1.1.547-1.708a2.997 2.997 0 00-.953-2.173 3.35 3.35 0 00-2.297-.902zM9.151 16.292a1.13 1.13 0 01-1.194-.143 1.034 1.034 0 01-.26-.316C7.65 15.741 6.5 13.541 6.5 11.275s1.149-4.466 1.198-4.558c.13-.242.354-.424.626-.51a1.14 1.14 0 01.823.057c.256.12.45.332.543.589a.975.975 0 01-.054.779c-.01.018-.97 1.87-.97 3.643 0 1.773.96 3.624.97 3.641.128.244.15.525.058.783-.09.258-.286.471-.543.593zM18.1 14.05c-.101.095-.22.17-.352.222a1.137 1.137 0 01-1.18-.222c-.144-.136-1.401-1.366-1.401-2.775 0-1.41 1.257-2.64 1.4-2.775.203-.192.479-.301.766-.302.287 0 .563.107.767.3a.998.998 0 01.318.724.998.998 0 01-.316.725c-.31.298-.769.926-.769 1.328s.46 1.03.767 1.325c.1.095.18.208.234.333a.977.977 0 010 .784 1.023 1.023 0 01-.235.333zM57.417 22.55h-6.5c-.288 0-.563-.108-.766-.3a.998.998 0 01-.318-.725c0-.272.114-.533.318-.725.203-.192.478-.3.766-.3h6.5c.287 0 .563.108.766.3a.998.998 0 01.317.725.998.998 0 01-.317.725c-.203.192-.479.3-.766.3zM44.417 22.55h-6.5c-.288 0-.563-.108-.766-.3a.998.998 0 01-.318-.725c0-.272.114-.533.318-.725.203-.192.478-.3.766-.3h6.5c.287 0 .563.108.766.3a.998.998 0 01.317.725.998.998 0 01-.317.725c-.203.192-.479.3-.766.3zM31.417 22.55h-6.5c-.288 0-.563-.108-.766-.3a.998.998 0 01-.318-.725c0-.272.115-.533.318-.725.203-.192.478-.3.766-.3h6.5c.287 0 .563.108.766.3a.998.998 0 01.317.725.998.998 0 01-.317.725c-.203.192-.479.3-.766.3zM18.417 22.55h-6.5c-.288 0-.563-.108-.766-.3a.998.998 0 01-.318-.725c0-.272.114-.533.318-.725.203-.192.478-.3.766-.3h6.5c.287 0 .563.108.766.3a.998.998 0 01.317.725.998.998 0 01-.317.725c-.203.192-.479.3-.766.3zM12.234 7.475c.203-.192.479-.3.766-.3.287 0 .563.108.766.3a.998.998 0 01.317.725.998.998 0 01-.317.725c-.008.007-.766.794-.766 2.35s.746 2.33.778 2.362l-.012-.012a.998.998 0 01.317.725.998.998 0 01-.317.725c-.203.192-.479.3-.766.3-.287 0-.563-.108-.766-.3-.143-.136-1.4-1.395-1.4-3.8s1.257-3.664 1.4-3.8z" fill="#000"/></svg><svg fill="none" viewBox="0 0 18 20" id="personal" xmlns="http://www.w3.org/2000/svg"><path d="M17 19v-2a4 4 0 00-4-4H5a4 4 0 00-4 4v2M13 5a4 4 0 11-8 0 4 4 0 018 0z" stroke="#000" stroke-width="2" stroke-linecap="round" stroke-linejoin="round"/></svg><svg fill="none" viewBox="0 0 53 53" id="price" xmlns="http://www.w3.org/2000/svg"><path d="M30.793 47.28a.716.716 0 01-.506-.21L8.65 25.436a.717.717 0 01-.2-.618l2.496-15.81a.715.715 0 01.596-.596l15.81-2.497a.716.716 0 01.618.201l21.635 21.636a.717.717 0 010 1.012L31.3 47.071a.716.716 0 01-.506.21zM9.922 24.68L30.793 45.55l17.294-17.294-20.87-20.87L12.28 9.744 9.921 24.68z" fill="#1F1F1F"/><path d="M18.311 19.432a3.657 3.657 0 11.005-7.313 3.657 3.657 0 01-.005 7.313zm0-5.883a2.226 2.226 0 10.003 4.455 2.226 2.226 0 00-.003-4.455zM4.16 25.37l-.908-1.946a.716.716 0 01.022-.65L11.03 8.771l1.253.694-7.58 13.684.755 1.616-1.299.605zM16.831 51.567a.716.716 0 01-.648-.413L5.455 28.147l1.299-.606 10.424 22.358 11.796-5.5.606 1.295-12.445 5.802a.715.715 0 01-.304.071z" fill="#1F1F1F"/><path d="M16.561 17.117a5.859 5.859 0 01-1.312-.16l.32-1.397c.59.135 1.666.278 2.235-.291.558-.558.556-1.726-.007-3.202a15.648 15.648 0 00-3.581-5.199c-3.533-3.532-7.263-4.727-8.4-3.589-1.139 1.138.056 4.87 3.588 8.4.239.237.478.464.716.683l-.96 1.062a21.525 21.525 0 01-.768-.731C4.396 8.698 2.853 4.216 4.802 2.267 6.75.317 11.233 1.86 15.229 5.856a17.08 17.08 0 013.907 5.7c.787 2.058.671 3.737-.319 4.728a3.055 3.055 0 01-2.256.833z" fill="#1F1F1F"/></svg><svg fill="none" viewBox="0 0 36 76" id="right" xmlns="http://www.w3.org/2000/svg"><path d="M1 75l34-37L1 1" stroke="#1F1F1F" stroke-linecap="round" stroke-linejoin="round"/></svg><svg fill="none" viewBox="0 0 20 20" id="search" xmlns="http://www.w3.org/2000/svg"><path d="M19 18.083l-4.35-4.128M17 8.591c0 4.194-3.582 7.593-8 7.593s-8-3.4-8-7.593S4.582 1 9 1s8 3.4 8 7.592z" stroke="#000" stroke-width="2" stroke-linecap="round" stroke-linejoin="round"/></svg><svg fill="none" viewBox="0 0 64 41" id="vk" xmlns="http://www.w3.org/2000/svg"><path d="M63.43 36.57c-.172-.324-1.236-2.92-6.357-8.256-5.36-5.587-4.64-4.68 1.816-14.34 3.932-5.885 5.505-9.478 5.013-11.014-.468-1.464-3.36-1.078-3.36-1.078l-9.617.063s-.712-.108-1.244.247c-.517.35-.848 1.159-.848 1.159s-1.525 4.554-3.557 8.426c-4.284 8.17-6 8.6-6.7 8.093-1.628-1.18-1.22-4.752-1.22-7.285 0-7.918 1.068-11.22-2.084-12.073C34.223.23 33.455.041 30.779.01c-3.432-.04-6.34.014-7.984.917-1.097.601-1.94 1.944-1.425 2.02.636.095 2.077.436 2.84 1.604.989 1.505.953 4.891.953 4.891s.568 9.32-1.324 10.479c-1.3.795-3.08-.827-6.9-8.242-1.957-3.795-3.437-7.995-3.437-7.995s-.284-.781-.792-1.199c-.616-.507-1.48-.67-1.48-.67l-9.145.064S.713 1.923.21 2.592C-.24 3.189.173 4.42.173 4.42s7.16 18.805 15.265 28.287c7.437 8.69 15.877 8.12 15.877 8.12h3.824s1.157-.143 1.745-.858c.544-.655.524-1.886.524-1.886s-.076-5.762 2.308-6.611c2.348-.836 5.364 5.569 8.56 8.035 2.417 1.864 4.253 1.455 4.253 1.455l8.548-.135s4.473-.31 2.353-4.258z" fill="#1F1F1F"/></svg><svg fill="none" viewBox="0 0 22 21" id="which" xmlns="http://www.w3.org/2000/svg"><path d="M19.458 2.68a5.257 5.257 0 00-1.708-1.243A4.89 4.89 0 0015.736 1a4.89 4.89 0 00-2.014.437 5.258 5.258 0 00-1.708 1.243L11 3.784 9.986 2.68C8.998 1.605 7.66 1 6.264 1s-2.735.605-3.722 1.68C1.555 3.755 1 5.213 1 6.734c0 1.52.555 2.978 1.542 4.053L11 20l8.458-9.213a5.79 5.79 0 001.141-1.86c.265-.695.401-1.44.401-2.193 0-.753-.136-1.499-.4-2.194a5.79 5.79 0 00-1.142-1.86z" stroke="#000" stroke-width="2" stroke-linecap="round" stroke-linejoin="round"/></svg></svg>